<svg width="32" height="32" viewBox="0 0 32 32" fill="none" xmlns="http://www.w3.org/2000/svg">
<g clip-path="url(#clip0_13_2784)">
<path d="M19.845 3.93521C19.845 6.10648 15.9098 11.9955 15.9098 11.9955C15.9098 11.9955 11.9746 6.10648 11.9746 3.93521C11.9746 1.76394 15.9098 0 15.9098 0C15.9098 0 19.845 1.76049 19.845 3.93521Z" fill="white"/>
<path d="M3.93521 11.9781C6.10648 11.9781 11.9955 15.9133 11.9955 15.9133C11.9955 15.9133 6.10648 19.8485 3.93521 19.8485C1.76394 19.8485 0 15.9098 0 15.9098C0 15.9098 1.76049 11.9746 3.93521 11.9746V11.9781Z" fill="white"/>
<path d="M11.9785 27.8904C11.9785 25.7191 15.9137 19.8301 15.9137 19.8301C15.9137 19.8301 19.8489 25.7191 19.8489 27.8904C19.8489 30.0616 15.9137 31.8256 15.9137 31.8256C15.9137 31.8256 11.9785 30.0651 11.9785 27.8904Z" fill="white"/>
<path d="M27.8884 19.845C25.7171 19.845 19.8281 15.9098 19.8281 15.9098C19.8281 15.9098 25.7171 11.9746 27.8884 11.9746C30.0597 11.9746 31.8236 15.9098 31.8236 15.9098C31.8236 15.9098 30.0631 19.845 27.8884 19.845Z" fill="white"/>
<path d="M15.9118 17.4702C16.7736 17.4702 17.4721 16.7716 17.4721 15.9099C17.4721 15.0482 16.7736 14.3496 15.9118 14.3496C15.0501 14.3496 14.3516 15.0482 14.3516 15.9099C14.3516 16.7716 15.0501 17.4702 15.9118 17.4702Z" fill="white"/>
</g>
<defs>
<clipPath id="clip0_13_2784">
<rect width="31.82" height="31.82" fill="white"/>
</clipPath>
</defs>
</svg>
